<svg width="16" height="15" viewBox="0 0 16 15" fill="none" xmlns="http://www.w3.org/2000/svg">
<path d="M7.3335 2.16665H2.66683C2.31321 2.16665 1.97407 2.30713 1.72402 2.55718C1.47397 2.80723 1.3335 3.14637 1.3335 3.49999V12.8333C1.3335 13.1869 1.47397 13.5261 1.72402 13.7761C1.97407 14.0262 2.31321 14.1667 2.66683 14.1667H12.0002C12.3538 14.1667 12.6929 14.0262 12.943 13.7761C13.193 13.5261 13.3335 13.1869 13.3335 12.8333V8.16666M12.3335 1.16665C12.5987 0.901438 12.9584 0.752441 13.3335 0.752441C13.7086 0.752441 14.0683 0.901438 14.3335 1.16665C14.5987 1.43187 14.7477 1.79158 14.7477 2.16665C14.7477 2.54173 14.5987 2.90144 14.3335 3.16665L8.00016 9.49999L5.3335 10.1667L6.00016 7.49999L12.3335 1.16665Z" stroke="#F81B3E" stroke-width="1.33333" stroke-linecap="round" stroke-linejoin="round"/>
</svg>
