<svg width="3" height="10" viewBox="0 0 3 10" fill="none" xmlns="http://www.w3.org/2000/svg">
<path d="M2.11523 0.96875L2.03906 7.0918H1.06055L0.978516 0.96875H2.11523ZM0.943359 8.95508C0.943359 8.7793 0.996094 8.63086 1.10156 8.50977C1.21094 8.38867 1.37109 8.32812 1.58203 8.32812C1.78906 8.32812 1.94727 8.38867 2.05664 8.50977C2.16992 8.63086 2.22656 8.7793 2.22656 8.95508C2.22656 9.12305 2.16992 9.26758 2.05664 9.38867C1.94727 9.50977 1.78906 9.57031 1.58203 9.57031C1.37109 9.57031 1.21094 9.50977 1.10156 9.38867C0.996094 9.26758 0.943359 9.12305 0.943359 8.95508Z" fill="white"/>
</svg>
